<svg width="18" height="20" viewBox="0 0 18 20" fill="none" xmlns="http://www.w3.org/2000/svg">
<path d="M17.0001 19C17.0001 17.6044 17.0001 16.9067 16.8279 16.3389C16.4401 15.0605 15.4396 14.06 14.1612 13.6722C13.5934 13.5 12.8957 13.5 11.5001 13.5H6.5001C5.10453 13.5 4.40675 13.5 3.83895 13.6722C2.56055 14.06 1.56013 15.0605 1.17233 16.3389C1.00009 16.9067 1.00009 17.6044 1.00009 19M13.5001 5.5C13.5001 7.98528 11.4854 10 9.00009 10C6.51481 10 4.50009 7.98528 4.50009 5.5C4.50009 3.01472 6.51481 1 9.00009 1C11.4854 1 13.5001 3.01472 13.5001 5.5Z" stroke="#61656C" stroke-width="2" stroke-linecap="round" stroke-linejoin="round"/>
</svg>
