<svg width="309" height="22" viewBox="0 0 309 22" fill="none" xmlns="http://www.w3.org/2000/svg">
<path d="M2.04 21.6299C1.38 21.6299 0.870003 21.4599 0.510003 21.1199C0.170003 20.7599 2.65241e-06 20.2499 2.65241e-06 19.5899V2.51988C2.65241e-06 1.85988 0.170003 1.35988 0.510003 1.01988C0.870003 0.659882 1.38 0.479882 2.04 0.479882H9.24C10.72 0.479882 11.98 0.699882 13.02 1.13988C14.06 1.57988 14.85 2.20988 15.39 3.02988C15.95 3.84988 16.23 4.82988 16.23 5.96988C16.23 7.24988 15.86 8.32988 15.12 9.20988C14.38 10.0899 13.37 10.6799 12.09 10.9799V10.5299C13.57 10.7499 14.72 11.3099 15.54 12.2099C16.36 13.1099 16.77 14.2799 16.77 15.7199C16.77 17.5999 16.13 19.0599 14.85 20.0999C13.59 21.1199 11.83 21.6299 9.57 21.6299H2.04ZM3.69 18.7199H9.09C10.45 18.7199 11.45 18.4599 12.09 17.9399C12.73 17.3999 13.05 16.5999 13.05 15.5399C13.05 14.4599 12.73 13.6599 12.09 13.1399C11.45 12.6199 10.45 12.3599 9.09 12.3599H3.69V18.7199ZM3.69 9.44988H8.58C9.9 9.44988 10.88 9.19988 11.52 8.69988C12.18 8.17988 12.51 7.41988 12.51 6.41988C12.51 5.41988 12.18 4.66988 11.52 4.16988C10.88 3.64988 9.9 3.38988 8.58 3.38988H3.69V9.44988ZM25.6043 21.9299C24.3843 21.9299 23.3743 21.7099 22.5743 21.2699C21.7743 20.8099 21.1743 20.1299 20.7743 19.2299C20.3943 18.3299 20.2043 17.2099 20.2043 15.8699V8.60988C20.2043 7.96988 20.3643 7.49988 20.6843 7.19988C21.0043 6.87988 21.4643 6.71988 22.0643 6.71988C22.6643 6.71988 23.1243 6.87988 23.4443 7.19988C23.7843 7.49988 23.9543 7.96988 23.9543 8.60988V15.9299C23.9543 16.9699 24.1643 17.7399 24.5843 18.2399C25.0043 18.7399 25.6743 18.9899 26.5943 18.9899C27.5943 18.9899 28.4143 18.6499 29.0543 17.9699C29.6943 17.2699 30.0143 16.3499 30.0143 15.2099V8.60988C30.0143 7.96988 30.1743 7.49988 30.4943 7.19988C30.8143 6.87988 31.2743 6.71988 31.8743 6.71988C32.4743 6.71988 32.9343 6.87988 33.2543 7.19988C33.5943 7.49988 33.7643 7.96988 33.7643 8.60988V19.9499C33.7643 21.2299 33.1543 21.8699 31.9343 21.8699C31.3543 21.8699 30.9043 21.7099 30.5843 21.3899C30.2643 21.0499 30.1043 20.5699 30.1043 19.9499V17.6699L30.5243 18.5699C30.1043 19.6499 29.4643 20.4799 28.6043 21.0599C27.7643 21.6399 26.7643 21.9299 25.6043 21.9299ZM43.0373 21.9299C42.1773 21.9299 41.2673 21.8399 40.3073 21.6599C39.3473 21.4799 38.4873 21.1699 37.7273 20.7299C37.4073 20.5299 37.1773 20.2999 37.0373 20.0399C36.9173 19.7599 36.8673 19.4899 36.8873 19.2299C36.9273 18.9499 37.0273 18.7099 37.1873 18.5099C37.3673 18.3099 37.5873 18.1799 37.8473 18.1199C38.1273 18.0599 38.4273 18.1099 38.7473 18.2699C39.5473 18.6499 40.2973 18.9199 40.9973 19.0799C41.6973 19.2199 42.3873 19.2899 43.0673 19.2899C44.0273 19.2899 44.7373 19.1299 45.1973 18.8099C45.6773 18.4699 45.9173 18.0299 45.9173 17.4899C45.9173 17.0299 45.7573 16.6799 45.4373 16.4399C45.1373 16.1799 44.6773 15.9899 44.0573 15.8699L41.0573 15.2999C39.8173 15.0599 38.8673 14.6099 38.2073 13.9499C37.5673 13.2699 37.2473 12.3999 37.2473 11.3399C37.2473 10.3799 37.5073 9.54988 38.0273 8.84988C38.5673 8.14988 39.3073 7.60988 40.2473 7.22988C41.1873 6.84988 42.2673 6.65988 43.4873 6.65988C44.3673 6.65988 45.1873 6.75988 45.9473 6.95988C46.7273 7.13988 47.4773 7.42988 48.1973 7.82988C48.4973 7.98988 48.6973 8.19988 48.7973 8.45988C48.9173 8.71988 48.9473 8.98988 48.8873 9.26988C48.8273 9.52988 48.7073 9.76988 48.5273 9.98988C48.3473 10.1899 48.1173 10.3199 47.8373 10.3799C47.5773 10.4199 47.2773 10.3599 46.9373 10.1999C46.3173 9.87988 45.7173 9.64988 45.1373 9.50988C44.5773 9.36988 44.0373 9.29988 43.5173 9.29988C42.5373 9.29988 41.8073 9.46988 41.3273 9.80988C40.8673 10.1499 40.6373 10.5999 40.6373 11.1599C40.6373 11.5799 40.7773 11.9299 41.0573 12.2099C41.3373 12.4899 41.7673 12.6799 42.3473 12.7799L45.3473 13.3499C46.6473 13.5899 47.6273 14.0299 48.2873 14.6699C48.9673 15.3099 49.3073 16.1699 49.3073 17.2499C49.3073 18.7099 48.7373 19.8599 47.5973 20.6999C46.4573 21.5199 44.9373 21.9299 43.0373 21.9299ZM54.1758 21.8399C53.5758 21.8399 53.1158 21.6599 52.7958 21.2999C52.4758 20.9399 52.3158 20.4399 52.3158 19.7999V8.78988C52.3158 8.12988 52.4758 7.62988 52.7958 7.28988C53.1158 6.92988 53.5758 6.74988 54.1758 6.74988C54.7758 6.74988 55.2358 6.92988 55.5558 7.28988C55.8958 7.62988 56.0658 8.12988 56.0658 8.78988V19.7999C56.0658 20.4399 55.9058 20.9399 55.5858 21.2999C55.2658 21.6599 54.7958 21.8399 54.1758 21.8399ZM54.1758 3.95988C53.4758 3.95988 52.9258 3.78988 52.5258 3.44988C52.1458 3.08988 51.9558 2.59988 51.9558 1.97988C51.9558 1.33988 52.1458 0.849882 52.5258 0.509881C52.9258 0.169882 53.4758 -0.00011766 54.1758 -0.00011766C54.8958 -0.00011766 55.4458 0.169882 55.8258 0.509881C56.2058 0.849882 56.3958 1.33988 56.3958 1.97988C56.3958 2.59988 56.2058 3.08988 55.8258 3.44988C55.4458 3.78988 54.8958 3.95988 54.1758 3.95988ZM61.8223 21.8699C61.2223 21.8699 60.7623 21.7099 60.4423 21.3899C60.1223 21.0499 59.9623 20.5699 59.9623 19.9499V8.60988C59.9623 7.98988 60.1223 7.51988 60.4423 7.19988C60.7623 6.87988 61.2123 6.71988 61.7923 6.71988C62.3723 6.71988 62.8223 6.87988 63.1423 7.19988C63.4623 7.51988 63.6223 7.98988 63.6223 8.60988V10.6499L63.2923 9.89988C63.7323 8.83988 64.4123 8.03988 65.3323 7.49988C66.2723 6.93988 67.3323 6.65988 68.5123 6.65988C69.6923 6.65988 70.6623 6.87988 71.4223 7.31988C72.1823 7.75988 72.7523 8.42988 73.1323 9.32988C73.5123 10.2099 73.7023 11.3299 73.7023 12.6899V19.9499C73.7023 20.5699 73.5423 21.0499 73.2223 21.3899C72.9023 21.7099 72.4423 21.8699 71.8423 21.8699C71.2423 21.8699 70.7723 21.7099 70.4323 21.3899C70.1123 21.0499 69.9523 20.5699 69.9523 19.9499V12.8699C69.9523 11.7299 69.7323 10.8999 69.2923 10.3799C68.8723 9.85988 68.2123 9.59988 67.3123 9.59988C66.2123 9.59988 65.3323 9.94988 64.6723 10.6499C64.0323 11.3299 63.7123 12.2399 63.7123 13.3799V19.9499C63.7123 21.2299 63.0823 21.8699 61.8223 21.8699ZM84.7411 21.9299C83.0811 21.9299 81.6511 21.6199 80.4511 20.9999C79.2511 20.3799 78.3211 19.4999 77.6611 18.3599C77.0211 17.2199 76.7011 15.8699 76.7011 14.3099C76.7011 12.7899 77.0111 11.4599 77.6311 10.3199C78.2711 9.17988 79.1411 8.28988 80.2411 7.64988C81.3611 6.98988 82.6311 6.65988 84.0511 6.65988C85.0911 6.65988 86.0211 6.82988 86.8411 7.16988C87.6811 7.50988 88.3911 7.99988 88.9711 8.63988C89.5711 9.27988 90.0211 10.0599 90.3211 10.9799C90.6411 11.8799 90.8011 12.8999 90.8011 14.0399C90.8011 14.3999 90.6711 14.6799 90.4111 14.8799C90.1711 15.0599 89.8211 15.1499 89.3611 15.1499H79.7311V12.9899H88.1611L87.6811 13.4399C87.6811 12.5199 87.5411 11.7499 87.2611 11.1299C87.0011 10.5099 86.6111 10.0399 86.0911 9.71988C85.5911 9.37988 84.9611 9.20988 84.2011 9.20988C83.3611 9.20988 82.6411 9.40988 82.0411 9.80988C81.4611 10.1899 81.0111 10.7399 80.6911 11.4599C80.3911 12.1599 80.2411 12.9999 80.2411 13.9799V14.1899C80.2411 15.8299 80.6211 17.0599 81.3811 17.8799C82.1611 18.6799 83.3011 19.0799 84.8011 19.0799C85.3211 19.0799 85.9011 19.0199 86.5411 18.8999C87.2011 18.7599 87.8211 18.5299 88.4011 18.2099C88.8211 17.9699 89.1911 17.8699 89.5111 17.9099C89.8311 17.9299 90.0811 18.0399 90.2611 18.2399C90.4611 18.4399 90.5811 18.6899 90.6211 18.9899C90.6611 19.2699 90.6011 19.5599 90.4411 19.8599C90.3011 20.1599 90.0511 20.4199 89.6911 20.6399C88.9911 21.0799 88.1811 21.4099 87.2611 21.6299C86.3611 21.8299 85.5211 21.9299 84.7411 21.9299ZM99.1409 21.9299C98.2809 21.9299 97.3709 21.8399 96.4109 21.6599C95.4509 21.4799 94.5909 21.1699 93.8309 20.7299C93.5109 20.5299 93.2809 20.2999 93.1409 20.0399C93.0209 19.7599 92.9709 19.4899 92.9909 19.2299C93.0309 18.9499 93.1309 18.7099 93.2909 18.5099C93.4709 18.3099 93.6909 18.1799 93.9509 18.1199C94.2309 18.0599 94.5309 18.1099 94.8509 18.2699C95.6509 18.6499 96.4009 18.9199 97.1009 19.0799C97.8009 19.2199 98.4909 19.2899 99.1709 19.2899C100.131 19.2899 100.841 19.1299 101.301 18.8099C101.781 18.4699 102.021 18.0299 102.021 17.4899C102.021 17.0299 101.861 16.6799 101.541 16.4399C101.241 16.1799 100.781 15.9899 100.161 15.8699L97.1609 15.2999C95.9209 15.0599 94.9709 14.6099 94.3109 13.9499C93.6709 13.2699 93.3509 12.3999 93.3509 11.3399C93.3509 10.3799 93.6109 9.54988 94.1309 8.84988C94.6709 8.14988 95.4109 7.60988 96.3509 7.22988C97.2909 6.84988 98.3709 6.65988 99.5909 6.65988C100.471 6.65988 101.291 6.75988 102.051 6.95988C102.831 7.13988 103.581 7.42988 104.301 7.82988C104.601 7.98988 104.801 8.19988 104.901 8.45988C105.021 8.71988 105.051 8.98988 104.991 9.26988C104.931 9.52988 104.811 9.76988 104.631 9.98988C104.451 10.1899 104.221 10.3199 103.941 10.3799C103.681 10.4199 103.381 10.3599 103.041 10.1999C102.421 9.87988 101.821 9.64988 101.241 9.50988C100.681 9.36988 100.141 9.29988 99.6209 9.29988C98.6409 9.29988 97.9109 9.46988 97.4309 9.80988C96.9709 10.1499 96.7409 10.5999 96.7409 11.1599C96.7409 11.5799 96.8809 11.9299 97.1609 12.2099C97.4409 12.4899 97.8709 12.6799 98.4509 12.7799L101.451 13.3499C102.751 13.5899 103.731 14.0299 104.391 14.6699C105.071 15.3099 105.411 16.1699 105.411 17.2499C105.411 18.7099 104.841 19.8599 103.701 20.6999C102.561 21.5199 101.041 21.9299 99.1409 21.9299ZM113.789 21.9299C112.929 21.9299 112.019 21.8399 111.059 21.6599C110.099 21.4799 109.239 21.1699 108.479 20.7299C108.159 20.5299 107.929 20.2999 107.789 20.0399C107.669 19.7599 107.619 19.4899 107.639 19.2299C107.679 18.9499 107.779 18.7099 107.939 18.5099C108.119 18.3099 108.339 18.1799 108.599 18.1199C108.879 18.0599 109.179 18.1099 109.499 18.2699C110.299 18.6499 111.049 18.9199 111.749 19.0799C112.449 19.2199 113.139 19.2899 113.819 19.2899C114.779 19.2899 115.489 19.1299 115.949 18.8099C116.429 18.4699 116.669 18.0299 116.669 17.4899C116.669 17.0299 116.509 16.6799 116.189 16.4399C115.889 16.1799 115.429 15.9899 114.809 15.8699L111.809 15.2999C110.569 15.0599 109.619 14.6099 108.959 13.9499C108.319 13.2699 107.999 12.3999 107.999 11.3399C107.999 10.3799 108.259 9.54988 108.779 8.84988C109.319 8.14988 110.059 7.60988 110.999 7.22988C111.939 6.84988 113.019 6.65988 114.239 6.65988C115.119 6.65988 115.939 6.75988 116.699 6.95988C117.479 7.13988 118.229 7.42988 118.949 7.82988C119.249 7.98988 119.449 8.19988 119.549 8.45988C119.669 8.71988 119.699 8.98988 119.639 9.26988C119.579 9.52988 119.459 9.76988 119.279 9.98988C119.099 10.1899 118.869 10.3199 118.589 10.3799C118.329 10.4199 118.029 10.3599 117.689 10.1999C117.069 9.87988 116.469 9.64988 115.889 9.50988C115.329 9.36988 114.789 9.29988 114.269 9.29988C113.289 9.29988 112.559 9.46988 112.079 9.80988C111.619 10.1499 111.389 10.5999 111.389 11.1599C111.389 11.5799 111.529 11.9299 111.809 12.2099C112.089 12.4899 112.519 12.6799 113.099 12.7799L116.099 13.3499C117.399 13.5899 118.379 14.0299 119.039 14.6699C119.719 15.3099 120.059 16.1699 120.059 17.2499C120.059 18.7099 119.489 19.8599 118.349 20.6999C117.209 21.5199 115.689 21.9299 113.789 21.9299ZM133.492 21.8699C132.872 21.8699 132.392 21.6999 132.052 21.3599C131.732 20.9999 131.572 20.5099 131.572 19.8899V2.21988C131.572 1.57988 131.732 1.08988 132.052 0.749882C132.392 0.409881 132.872 0.239881 133.492 0.239881C134.112 0.239881 134.582 0.409881 134.902 0.749882C135.242 1.08988 135.412 1.57988 135.412 2.21988V9.29988H146.302V2.21988C146.302 1.57988 146.462 1.08988 146.782 0.749882C147.122 0.409881 147.602 0.239881 148.222 0.239881C148.842 0.239881 149.312 0.409881 149.632 0.749882C149.972 1.08988 150.142 1.57988 150.142 2.21988V19.8899C150.142 20.5099 149.972 20.9999 149.632 21.3599C149.312 21.6999 148.842 21.8699 148.222 21.8699C147.602 21.8699 147.122 21.6999 146.782 21.3599C146.462 20.9999 146.302 20.5099 146.302 19.8899V12.5099H135.412V19.8899C135.412 20.5099 135.252 20.9999 134.932 21.3599C134.612 21.6999 134.132 21.8699 133.492 21.8699ZM161.645 21.9299C159.985 21.9299 158.555 21.6199 157.355 20.9999C156.155 20.3799 155.225 19.4999 154.565 18.3599C153.925 17.2199 153.605 15.8699 153.605 14.3099C153.605 12.7899 153.915 11.4599 154.535 10.3199C155.175 9.17988 156.045 8.28988 157.145 7.64988C158.265 6.98988 159.535 6.65988 160.955 6.65988C161.995 6.65988 162.925 6.82988 163.745 7.16988C164.585 7.50988 165.295 7.99988 165.875 8.63988C166.475 9.27988 166.925 10.0599 167.225 10.9799C167.545 11.8799 167.705 12.8999 167.705 14.0399C167.705 14.3999 167.575 14.6799 167.315 14.8799C167.075 15.0599 166.725 15.1499 166.265 15.1499H156.635V12.9899H165.065L164.585 13.4399C164.585 12.5199 164.445 11.7499 164.165 11.1299C163.905 10.5099 163.515 10.0399 162.995 9.71988C162.495 9.37988 161.865 9.20988 161.105 9.20988C160.265 9.20988 159.545 9.40988 158.945 9.80988C158.365 10.1899 157.915 10.7399 157.595 11.4599C157.295 12.1599 157.145 12.9999 157.145 13.9799V14.1899C157.145 15.8299 157.525 17.0599 158.285 17.8799C159.065 18.6799 160.205 19.0799 161.705 19.0799C162.225 19.0799 162.805 19.0199 163.445 18.8999C164.105 18.7599 164.725 18.5299 165.305 18.2099C165.725 17.9699 166.095 17.8699 166.415 17.9099C166.735 17.9299 166.985 18.0399 167.165 18.2399C167.365 18.4399 167.485 18.6899 167.525 18.9899C167.565 19.2699 167.505 19.5599 167.345 19.8599C167.205 20.1599 166.955 20.4199 166.595 20.6399C165.895 21.0799 165.085 21.4099 164.165 21.6299C163.265 21.8299 162.425 21.9299 161.645 21.9299ZM175.505 21.9299C174.445 21.9299 173.495 21.7299 172.655 21.3299C171.835 20.9099 171.185 20.3499 170.705 19.6499C170.245 18.9499 170.015 18.1599 170.015 17.2799C170.015 16.1999 170.295 15.3499 170.855 14.7299C171.415 14.0899 172.325 13.6299 173.585 13.3499C174.845 13.0699 176.535 12.9299 178.655 12.9299H180.155V15.0899H178.685C177.445 15.0899 176.455 15.1499 175.715 15.2699C174.975 15.3899 174.445 15.5999 174.125 15.8999C173.825 16.1799 173.675 16.5799 173.675 17.0999C173.675 17.7599 173.905 18.2999 174.365 18.7199C174.825 19.1399 175.465 19.3499 176.285 19.3499C176.945 19.3499 177.525 19.1999 178.025 18.8999C178.545 18.5799 178.955 18.1499 179.255 17.6099C179.555 17.0699 179.705 16.4499 179.705 15.7499V12.2999C179.705 11.2999 179.485 10.5799 179.045 10.1399C178.605 9.69988 177.865 9.47988 176.825 9.47988C176.245 9.47988 175.615 9.54988 174.935 9.68988C174.275 9.82988 173.575 10.0699 172.835 10.4099C172.455 10.5899 172.115 10.6399 171.815 10.5599C171.535 10.4799 171.315 10.3199 171.155 10.0799C170.995 9.81988 170.915 9.53988 170.915 9.23988C170.915 8.93988 170.995 8.64988 171.155 8.36988C171.315 8.06988 171.585 7.84988 171.965 7.70988C172.885 7.32988 173.765 7.05988 174.605 6.89988C175.465 6.73988 176.245 6.65988 176.945 6.65988C178.385 6.65988 179.565 6.87988 180.485 7.31988C181.425 7.75988 182.125 8.42988 182.585 9.32988C183.045 10.2099 183.275 11.3499 183.275 12.7499V19.9499C183.275 20.5699 183.125 21.0499 182.825 21.3899C182.525 21.7099 182.095 21.8699 181.535 21.8699C180.975 21.8699 180.535 21.7099 180.215 21.3899C179.915 21.0499 179.765 20.5699 179.765 19.9499V18.5099H180.005C179.865 19.2099 179.585 19.8199 179.165 20.3399C178.765 20.8399 178.255 21.2299 177.635 21.5099C177.015 21.7899 176.305 21.9299 175.505 21.9299ZM192.091 21.9299C190.431 21.9299 189.181 21.4599 188.341 20.5199C187.501 19.5599 187.081 18.1599 187.081 16.3199V2.12988C187.081 1.50988 187.241 1.03988 187.561 0.719882C187.881 0.399881 188.341 0.239881 188.941 0.239881C189.541 0.239881 190.001 0.399881 190.321 0.719882C190.661 1.03988 190.831 1.50988 190.831 2.12988V16.1399C190.831 17.0599 191.021 17.7399 191.401 18.1799C191.801 18.6199 192.361 18.8399 193.081 18.8399C193.241 18.8399 193.391 18.8399 193.531 18.8399C193.671 18.8199 193.811 18.7999 193.951 18.7799C194.231 18.7399 194.421 18.8199 194.521 19.0199C194.621 19.1999 194.671 19.5799 194.671 20.1599C194.671 20.6599 194.571 21.0499 194.371 21.3299C194.171 21.6099 193.841 21.7799 193.381 21.8399C193.181 21.8599 192.971 21.8799 192.751 21.8999C192.531 21.9199 192.311 21.9299 192.091 21.9299ZM203.001 21.9299C201.701 21.9299 200.611 21.7099 199.731 21.2699C198.871 20.8299 198.231 20.1899 197.811 19.3499C197.391 18.4899 197.181 17.4299 197.181 16.1699V9.77988H195.621C195.141 9.77988 194.771 9.65988 194.511 9.41988C194.251 9.15988 194.121 8.80988 194.121 8.36988C194.121 7.90988 194.251 7.55988 194.511 7.31988C194.771 7.07988 195.141 6.95988 195.621 6.95988H197.181V4.22988C197.181 3.60988 197.341 3.13988 197.661 2.81988C198.001 2.49988 198.471 2.33988 199.071 2.33988C199.671 2.33988 200.131 2.49988 200.451 2.81988C200.771 3.13988 200.931 3.60988 200.931 4.22988V6.95988H204.111C204.591 6.95988 204.961 7.07988 205.221 7.31988C205.481 7.55988 205.611 7.90988 205.611 8.36988C205.611 8.80988 205.481 9.15988 205.221 9.41988C204.961 9.65988 204.591 9.77988 204.111 9.77988H200.931V15.9599C200.931 16.9199 201.141 17.6399 201.561 18.1199C201.981 18.5999 202.661 18.8399 203.601 18.8399C203.941 18.8399 204.241 18.8099 204.501 18.7499C204.761 18.6899 204.991 18.6499 205.191 18.6299C205.431 18.6099 205.631 18.6899 205.791 18.8699C205.951 19.0299 206.031 19.3699 206.031 19.8899C206.031 20.2899 205.961 20.6499 205.821 20.9699C205.701 21.2699 205.471 21.4799 205.131 21.5999C204.871 21.6799 204.531 21.7499 204.111 21.8099C203.691 21.8899 203.321 21.9299 203.001 21.9299ZM210.035 21.8699C209.435 21.8699 208.975 21.7099 208.655 21.3899C208.335 21.0499 208.175 20.5699 208.175 19.9499V2.12988C208.175 1.50988 208.335 1.03988 208.655 0.719882C208.975 0.399881 209.435 0.239881 210.035 0.239881C210.635 0.239881 211.095 0.399881 211.415 0.719882C211.755 1.03988 211.925 1.50988 211.925 2.12988V9.89988H211.505C211.945 8.83988 212.625 8.03988 213.545 7.49988C214.485 6.93988 215.545 6.65988 216.725 6.65988C217.905 6.65988 218.875 6.87988 219.635 7.31988C220.395 7.75988 220.965 8.42988 221.345 9.32988C221.725 10.2099 221.915 11.3299 221.915 12.6899V19.9499C221.915 20.5699 221.755 21.0499 221.435 21.3899C221.115 21.7099 220.655 21.8699 220.055 21.8699C219.455 21.8699 218.985 21.7099 218.645 21.3899C218.325 21.0499 218.165 20.5699 218.165 19.9499V12.8699C218.165 11.7299 217.945 10.8999 217.505 10.3799C217.085 9.85988 216.425 9.59988 215.525 9.59988C214.425 9.59988 213.545 9.94988 212.885 10.6499C212.245 11.3299 211.925 12.2399 211.925 13.3799V19.9499C211.925 21.2299 211.295 21.8699 210.035 21.8699ZM241.519 21.9299C240.639 21.9299 239.759 21.8599 238.879 21.7199C237.999 21.5999 237.169 21.4099 236.389 21.1499C235.609 20.8699 234.909 20.5299 234.289 20.1299C233.929 19.8899 233.679 19.5999 233.539 19.2599C233.399 18.9199 233.349 18.5899 233.389 18.2699C233.449 17.9299 233.579 17.6399 233.779 17.3999C233.999 17.1399 234.269 16.9799 234.589 16.9199C234.909 16.8599 235.259 16.9499 235.639 17.1899C236.519 17.7099 237.449 18.0899 238.429 18.3299C239.409 18.5699 240.439 18.6899 241.519 18.6899C243.099 18.6899 244.249 18.4299 244.969 17.9099C245.689 17.3699 246.049 16.6799 246.049 15.8399C246.049 15.1399 245.789 14.5899 245.269 14.1899C244.769 13.7899 243.899 13.4599 242.659 13.1999L239.359 12.5099C237.459 12.1099 236.039 11.4399 235.099 10.4999C234.179 9.53988 233.719 8.27988 233.719 6.71988C233.719 5.73988 233.919 4.84988 234.319 4.04988C234.719 3.24988 235.279 2.55988 235.999 1.97988C236.739 1.39988 237.609 0.959882 238.609 0.659881C239.629 0.339882 240.749 0.179882 241.969 0.179882C243.169 0.179882 244.309 0.329882 245.389 0.629881C246.469 0.929881 247.439 1.36988 248.299 1.94988C248.619 2.16988 248.829 2.43988 248.929 2.75988C249.049 3.07988 249.079 3.39988 249.019 3.71988C248.959 4.01988 248.819 4.27988 248.599 4.49988C248.379 4.71988 248.099 4.84988 247.759 4.88988C247.439 4.92988 247.069 4.82988 246.649 4.58988C245.909 4.16988 245.159 3.86988 244.399 3.68988C243.639 3.50988 242.819 3.41988 241.939 3.41988C241.019 3.41988 240.229 3.54988 239.569 3.80988C238.909 4.06988 238.399 4.43988 238.039 4.91988C237.699 5.37988 237.529 5.92988 237.529 6.56988C237.529 7.28988 237.769 7.86988 238.249 8.30988C238.729 8.72988 239.549 9.05988 240.709 9.29988L243.979 9.98988C245.959 10.4099 247.429 11.0699 248.389 11.9699C249.369 12.8699 249.859 14.0699 249.859 15.5699C249.859 16.5299 249.659 17.3999 249.259 18.1799C248.879 18.9599 248.319 19.6299 247.579 20.1899C246.859 20.7499 245.989 21.1799 244.969 21.4799C243.949 21.7799 242.799 21.9299 241.519 21.9299ZM259.574 21.9299C258.034 21.9299 256.694 21.6199 255.554 20.9999C254.414 20.3599 253.534 19.4599 252.914 18.2999C252.294 17.1399 251.984 15.7799 251.984 14.2199C251.984 13.0399 252.154 11.9899 252.494 11.0699C252.854 10.1299 253.364 9.33988 254.024 8.69988C254.684 8.03988 255.484 7.53988 256.424 7.19988C257.364 6.83988 258.414 6.65988 259.574 6.65988C260.234 6.65988 260.944 6.74988 261.704 6.92988C262.484 7.10988 263.214 7.40988 263.894 7.82988C264.214 8.02988 264.424 8.26988 264.524 8.54988C264.624 8.82988 264.644 9.11988 264.584 9.41988C264.524 9.69988 264.394 9.94988 264.194 10.1699C264.014 10.3699 263.784 10.4999 263.504 10.5599C263.224 10.5999 262.914 10.5299 262.574 10.3499C262.134 10.0899 261.684 9.89988 261.224 9.77988C260.764 9.63988 260.324 9.56988 259.904 9.56988C259.244 9.56988 258.664 9.67988 258.164 9.89988C257.664 10.0999 257.234 10.3999 256.874 10.7999C256.534 11.1799 256.274 11.6599 256.094 12.2399C255.914 12.8199 255.824 13.4899 255.824 14.2499C255.824 15.7299 256.174 16.8999 256.874 17.7599C257.594 18.5999 258.604 19.0199 259.904 19.0199C260.324 19.0199 260.754 18.9599 261.194 18.8399C261.654 18.7199 262.114 18.5299 262.574 18.2699C262.914 18.0899 263.214 18.0299 263.474 18.0899C263.754 18.1499 263.984 18.2899 264.164 18.5099C264.344 18.7099 264.454 18.9599 264.494 19.2599C264.534 19.5399 264.494 19.8199 264.374 20.0999C264.274 20.3799 264.074 20.6099 263.774 20.7899C263.114 21.1899 262.414 21.4799 261.674 21.6599C260.934 21.8399 260.234 21.9299 259.574 21.9299ZM273.342 21.9299C271.822 21.9299 270.502 21.6199 269.382 20.9999C268.262 20.3799 267.392 19.4999 266.772 18.3599C266.152 17.1999 265.842 15.8399 265.842 14.2799C265.842 13.0999 266.012 12.0499 266.352 11.1299C266.712 10.1899 267.222 9.38988 267.882 8.72988C268.542 8.04988 269.332 7.53988 270.252 7.19988C271.172 6.83988 272.202 6.65988 273.342 6.65988C274.862 6.65988 276.182 6.96988 277.302 7.58988C278.422 8.20988 279.292 9.08988 279.912 10.2299C280.532 11.3699 280.842 12.7199 280.842 14.2799C280.842 15.4599 280.662 16.5199 280.302 17.4599C279.962 18.3999 279.462 19.2099 278.802 19.8899C278.142 20.5499 277.352 21.0599 276.432 21.4199C275.512 21.7599 274.482 21.9299 273.342 21.9299ZM273.342 19.0799C274.082 19.0799 274.732 18.8999 275.292 18.5399C275.852 18.1799 276.282 17.6499 276.582 16.9499C276.902 16.2299 277.062 15.3399 277.062 14.2799C277.062 12.6799 276.722 11.4899 276.042 10.7099C275.362 9.90988 274.462 9.50988 273.342 9.50988C272.602 9.50988 271.952 9.68988 271.392 10.0499C270.832 10.3899 270.392 10.9199 270.072 11.6399C269.772 12.3399 269.622 13.2199 269.622 14.2799C269.622 15.8599 269.962 17.0599 270.642 17.8799C271.322 18.6799 272.222 19.0799 273.342 19.0799ZM285.857 21.8699C285.237 21.8699 284.757 21.7099 284.417 21.3899C284.097 21.0499 283.937 20.5699 283.937 19.9499V8.60988C283.937 7.98988 284.097 7.51988 284.417 7.19988C284.737 6.87988 285.187 6.71988 285.767 6.71988C286.347 6.71988 286.797 6.87988 287.117 7.19988C287.437 7.51988 287.597 7.98988 287.597 8.60988V10.4999H287.297C287.577 9.29988 288.127 8.38988 288.947 7.76988C289.767 7.14988 290.857 6.77988 292.217 6.65988C292.637 6.61988 292.967 6.72988 293.207 6.98988C293.467 7.22988 293.617 7.60988 293.657 8.12988C293.697 8.62988 293.577 9.03988 293.297 9.35988C293.037 9.65988 292.637 9.83988 292.097 9.89988L291.437 9.95988C290.217 10.0799 289.297 10.4599 288.677 11.0999C288.057 11.7199 287.747 12.5999 287.747 13.7399V19.9499C287.747 20.5699 287.587 21.0499 287.267 21.3899C286.947 21.7099 286.477 21.8699 285.857 21.8699ZM302.681 21.9299C301.021 21.9299 299.591 21.6199 298.391 20.9999C297.191 20.3799 296.261 19.4999 295.601 18.3599C294.961 17.2199 294.641 15.8699 294.641 14.3099C294.641 12.7899 294.951 11.4599 295.571 10.3199C296.211 9.17988 297.081 8.28988 298.181 7.64988C299.301 6.98988 300.571 6.65988 301.991 6.65988C303.031 6.65988 303.961 6.82988 304.781 7.16988C305.621 7.50988 306.331 7.99988 306.911 8.63988C307.511 9.27988 307.961 10.0599 308.261 10.9799C308.581 11.8799 308.741 12.8999 308.741 14.0399C308.741 14.3999 308.611 14.6799 308.351 14.8799C308.111 15.0599 307.761 15.1499 307.301 15.1499H297.671V12.9899H306.101L305.621 13.4399C305.621 12.5199 305.481 11.7499 305.201 11.1299C304.941 10.5099 304.551 10.0399 304.031 9.71988C303.531 9.37988 302.901 9.20988 302.141 9.20988C301.301 9.20988 300.581 9.40988 299.981 9.80988C299.401 10.1899 298.951 10.7399 298.631 11.4599C298.331 12.1599 298.181 12.9999 298.181 13.9799V14.1899C298.181 15.8299 298.561 17.0599 299.321 17.8799C300.101 18.6799 301.241 19.0799 302.741 19.0799C303.261 19.0799 303.841 19.0199 304.481 18.8999C305.141 18.7599 305.761 18.5299 306.341 18.2099C306.761 17.9699 307.131 17.8699 307.451 17.9099C307.771 17.9299 308.021 18.0399 308.201 18.2399C308.401 18.4399 308.521 18.6899 308.561 18.9899C308.601 19.2699 308.541 19.5599 308.381 19.8599C308.241 20.1599 307.991 20.4199 307.631 20.6399C306.931 21.0799 306.121 21.4099 305.201 21.6299C304.301 21.8299 303.461 21.9299 302.681 21.9299Z" fill="#F7F7F7"/>
</svg>
