<svg width="32" height="32" viewBox="0 0 32 32" fill="none" xmlns="http://www.w3.org/2000/svg">
<path d="M16 4C19.2389 4 22.1761 5.28533 24.335 7.37109C24.3863 7.41775 24.437 7.46533 24.4863 7.51465L24.6143 7.64941C26.7088 9.80968 28 12.7534 28 16C28 19.3137 26.6569 22.3138 24.4854 24.4854L24.3516 24.6143C24.3456 24.6197 24.339 24.6245 24.333 24.6299C22.1743 26.7148 19.2382 28 16 28C9.37258 28 4 22.6274 4 16C4 9.37258 9.37258 4 16 4ZM15.999 24.7314C14.9041 25.2457 13.8186 25.5942 12.7881 25.7676C13.7989 26.0998 14.878 26.2822 16 26.2822C17.1202 26.2822 18.1976 26.0998 19.207 25.7686C18.1774 25.5947 17.0928 25.2454 15.999 24.7314ZM8.39355 18.0049C8.29712 18.2869 8.21456 18.5646 8.14648 18.8369C7.61401 20.9671 8.00509 22.4297 8.78809 23.2129C9.57125 23.9959 11.0338 24.387 13.1641 23.8545C13.4359 23.7865 13.7127 23.7027 13.9941 23.6064C12.9337 22.9136 11.8904 22.073 10.9092 21.0918C9.92752 20.1101 9.08659 19.0659 8.39355 18.0049ZM23.6074 18.0059C22.9145 19.0666 22.0732 20.1104 21.0918 21.0918L20.6494 21.5215C19.7997 22.3211 18.9094 23.0178 18.0068 23.6074C18.2882 23.7036 18.5652 23.7866 18.8369 23.8545C20.9672 24.387 22.4297 23.9959 23.2129 23.2129L23.3555 23.0576C24.0414 22.2438 24.3537 20.8338 23.8545 18.8369C23.7865 18.5649 23.7038 18.2875 23.6074 18.0059ZM16 9.28613C14.7147 9.98953 13.4065 10.9578 12.1826 12.1816C10.9584 13.4058 9.9896 14.7144 9.28613 16C9.98961 17.2857 10.9574 18.5951 12.1816 19.8193C13.4056 21.0433 14.7146 22.0105 16 22.7139C17.2855 22.0102 18.595 21.0427 19.8193 19.8184C21.0433 18.5943 22.0103 17.2852 22.7139 16C22.0103 14.7148 21.0423 13.4066 19.8184 12.1826C18.5941 10.9584 17.2855 9.9898 16 9.28613ZM25.7695 12.7939C25.5956 13.8237 25.2454 14.9081 24.7314 16.002C25.2454 17.0962 25.594 18.181 25.7676 19.2109C26.0996 18.2004 26.2822 17.1216 26.2822 16C26.2822 14.8802 26.1005 13.8031 25.7695 12.7939ZM6.23145 12.7891C5.89947 13.7996 5.71777 14.8785 5.71777 16C5.71777 17.1212 5.89965 18.1997 6.23145 19.21C6.40508 18.1798 6.75443 17.0944 7.26855 16C6.75428 14.9052 6.40496 13.8196 6.23145 12.7891ZM13.1641 8.14648C11.034 7.61401 9.57136 8.00432 8.78809 8.78711C8.00501 9.57019 7.6141 11.0329 8.14648 13.1631C8.21447 13.435 8.29729 13.7126 8.39355 13.9941C9.08643 12.9335 9.9279 11.8905 10.9092 10.9092C11.8909 9.92742 12.935 9.08566 13.9961 8.39258C13.7142 8.29615 13.4363 8.21456 13.1641 8.14648ZM23.2139 8.78809C22.4308 8.00499 20.9682 7.61403 18.8379 8.14648C18.5656 8.21455 18.2878 8.29714 18.0059 8.39355C19.0667 9.0865 20.1103 9.92771 21.0918 10.9092L21.5215 11.3525C22.3209 12.2021 23.0179 13.0918 23.6074 13.9941C23.7037 13.7127 23.7875 13.4359 23.8555 13.1641C24.388 11.034 23.9967 9.57134 23.2139 8.78809ZM16 5.71777C14.8789 5.71777 13.8002 5.89874 12.79 6.23047C13.8205 6.40403 14.9063 6.75334 16.001 7.26758C17.0953 6.75355 18.1808 6.40502 19.2109 6.23145C18.2004 5.89947 17.1215 5.71777 16 5.71777Z" fill="#14B8A6"/>
</svg>
