<svg width="19" height="19" viewBox="0 0 19 19" fill="none" xmlns="http://www.w3.org/2000/svg">
<path d="M9.16668 11.6666C10.5474 11.6666 11.6667 10.5473 11.6667 9.16659C11.6667 7.78587 10.5474 6.66659 9.16668 6.66659C7.78596 6.66659 6.66668 7.78587 6.66668 9.16659C6.66668 10.5473 7.78596 11.6666 9.16668 11.6666Z" stroke="#61656C" stroke-width="1.66667" stroke-linecap="round" stroke-linejoin="round"/>
<path d="M14.7727 11.4393C14.6719 11.6678 14.6418 11.9213 14.6864 12.167C14.7309 12.4128 14.8481 12.6396 15.0227 12.8181L15.0682 12.8636C15.2091 13.0043 15.3208 13.1714 15.3971 13.3553C15.4733 13.5392 15.5126 13.7364 15.5126 13.9355C15.5126 14.1346 15.4733 14.3318 15.3971 14.5157C15.3208 14.6997 15.2091 14.8668 15.0682 15.0075C14.9275 15.1484 14.7604 15.2601 14.5764 15.3364C14.3925 15.4126 14.1953 15.4519 13.9962 15.4519C13.7971 15.4519 13.5999 15.4126 13.416 15.3364C13.2321 15.2601 13.065 15.1484 12.9243 15.0075L12.8788 14.962C12.7003 14.7874 12.4735 14.6702 12.2277 14.6257C11.982 14.5811 11.7285 14.6112 11.5 14.712C11.2759 14.8081 11.0848 14.9675 10.9502 15.1708C10.8156 15.374 10.7434 15.6122 10.7424 15.856V15.9848C10.7424 16.3866 10.5828 16.772 10.2987 17.0561C10.0145 17.3403 9.62913 17.4999 9.22728 17.4999C8.82544 17.4999 8.44006 17.3403 8.15591 17.0561C7.87176 16.772 7.71213 16.3866 7.71213 15.9848V15.9166C7.70627 15.6658 7.6251 15.4226 7.47918 15.2186C7.33327 15.0146 7.12936 14.8592 6.89395 14.7726C6.66545 14.6718 6.41198 14.6417 6.16623 14.6863C5.92048 14.7308 5.69371 14.848 5.51516 15.0226L5.46971 15.0681C5.32899 15.209 5.16189 15.3207 4.97795 15.397C4.79401 15.4732 4.59685 15.5125 4.39774 15.5125C4.19862 15.5125 4.00146 15.4732 3.81752 15.397C3.63359 15.3207 3.46648 15.209 3.32577 15.0681C3.18489 14.9274 3.07314 14.7603 2.99689 14.5763C2.92064 14.3924 2.88139 14.1952 2.88139 13.9961C2.88139 13.797 2.92064 13.5999 2.99689 13.4159C3.07314 13.232 3.18489 13.0649 3.32577 12.9242L3.37122 12.8787C3.54587 12.7002 3.66303 12.4734 3.70759 12.2276C3.75215 11.9819 3.72207 11.7284 3.62122 11.4999C3.52519 11.2759 3.36573 11.0848 3.16248 10.9502C2.95923 10.8155 2.72106 10.7433 2.47728 10.7423H2.3485C1.94665 10.7423 1.56127 10.5827 1.27712 10.2986C0.992975 10.0144 0.833344 9.62903 0.833344 9.22719C0.833344 8.82535 0.992975 8.43996 1.27712 8.15582C1.56127 7.87167 1.94665 7.71204 2.3485 7.71204H2.41668C2.66743 7.70617 2.91062 7.62501 3.11463 7.47909C3.31864 7.33318 3.47404 7.12926 3.56062 6.89386C3.66146 6.66536 3.69154 6.41189 3.64698 6.16614C3.60242 5.92039 3.48527 5.69361 3.31062 5.51507L3.26516 5.46962C3.12429 5.3289 3.01253 5.16179 2.93628 4.97786C2.86003 4.79392 2.82079 4.59676 2.82079 4.39765C2.82079 4.19853 2.86003 4.00137 2.93628 3.81743C3.01253 3.6335 3.12429 3.46639 3.26516 3.32568C3.40588 3.1848 3.57298 3.07305 3.75692 2.9968C3.94086 2.92055 4.13802 2.8813 4.33713 2.8813C4.53625 2.8813 4.73341 2.92055 4.91734 2.9968C5.10128 3.07305 5.26838 3.1848 5.4091 3.32568L5.45456 3.37113C5.6331 3.54578 5.85987 3.66294 6.10562 3.7075C6.35138 3.75206 6.60485 3.72198 6.83334 3.62113H6.89395C7.11802 3.5251 7.30911 3.36564 7.44372 3.16239C7.57832 2.95914 7.65055 2.72097 7.65153 2.47719V2.3484C7.65153 1.94656 7.81116 1.56118 8.0953 1.27703C8.37945 0.992884 8.76483 0.833252 9.16668 0.833252C9.56852 0.833252 9.9539 0.992884 10.2381 1.27703C10.5222 1.56118 10.6818 1.94656 10.6818 2.3484V2.41659C10.6828 2.66036 10.755 2.89854 10.8896 3.10179C11.0242 3.30504 11.2153 3.46449 11.4394 3.56052C11.6679 3.66137 11.9214 3.69145 12.1671 3.64689C12.4129 3.60233 12.6396 3.48517 12.8182 3.31052L12.8636 3.26507C13.0044 3.1242 13.1715 3.01244 13.3554 2.93619C13.5393 2.85994 13.7365 2.8207 13.9356 2.8207C14.1347 2.8207 14.3319 2.85994 14.5158 2.93619C14.6998 3.01244 14.8669 3.1242 15.0076 3.26507C15.1485 3.40579 15.2602 3.57289 15.3365 3.75683C15.4127 3.94076 15.452 4.13793 15.452 4.33704C15.452 4.53615 15.4127 4.73332 15.3365 4.91725C15.2602 5.10119 15.1485 5.26829 15.0076 5.40901L14.9621 5.45446C14.7875 5.63301 14.6703 5.85978 14.6258 6.10553C14.5812 6.35129 14.6113 6.60476 14.7121 6.83325V6.89386C14.8082 7.11793 14.9676 7.30902 15.1709 7.44363C15.3741 7.57823 15.6123 7.65046 15.8561 7.65143H15.9849C16.3867 7.65143 16.7721 7.81107 17.0562 8.09521C17.3404 8.37936 17.5 8.76474 17.5 9.16659C17.5 9.56843 17.3404 9.95381 17.0562 10.238C16.7721 10.5221 16.3867 10.6817 15.9849 10.6817H15.9167C15.6729 10.6827 15.4347 10.7549 15.2315 10.8895C15.0282 11.0241 14.8688 11.2152 14.7727 11.4393Z" stroke="#61656C" stroke-width="1.66667" stroke-linecap="round" stroke-linejoin="round"/>
</svg>
